<?xml version="1.0" encoding="utf-8"?>
<!DOCTYPE svg PUBLIC "-//W3C//DTD SVG 1.1//EN" "http://www.w3.org/Graphics/SVG/1.1/DTD/svg11.dtd">
<svg version="1.1" id="Layer_1" xmlns="http://www.w3.org/2000/svg" xmlns:xlink="http://www.w3.org/1999/xlink" x="0px" y="0px"
	 width="13px" height="11.358px" viewBox="0 0 13 11.358" enable-background="new 0 0 13 11.358" xml:space="preserve">
<g>
	<defs>
		<rect id="SVGID_1_" y="0" width="13" height="11.359"/>
	</defs>
	<clipPath id="SVGID_2_">
		<use xlink:href="#SVGID_1_"  overflow="visible"/>
	</clipPath>
	<path clip-path="url(#SVGID_2_)" fill="#fbcb8e" d="M9.377,0C8.139,0,7.081,0.883,6.499,1.491C5.917,0.883,4.861,0,3.624,0
		C1.49,0,0,1.487,0,3.616c0,2.346,1.85,3.862,3.64,5.328c0.845,0.693,1.72,1.41,2.391,2.204c0.112,0.133,0.277,0.21,0.452,0.21
		h0.034c0.174,0,0.339-0.077,0.451-0.21c0.671-0.794,1.546-1.51,2.391-2.203C11.148,7.479,13,5.963,13,3.616
		C13,1.487,11.511,0,9.377,0"/>
</g>
</svg>
