<?xml version="1.0" encoding="utf-8"?>
<!DOCTYPE svg PUBLIC "-//W3C//DTD SVG 1.1//EN" "http://www.w3.org/Graphics/SVG/1.1/DTD/svg11.dtd">
<svg version="1.1" id="Layer_1" xmlns="http://www.w3.org/2000/svg" xmlns:xlink="http://www.w3.org/1999/xlink" x="0px" y="0px"
	 width="14px" height="14px" viewBox="0 0 14 14" enable-background="new 0 0 14 14" xml:space="preserve">
<path fill="#90699c" d="M12.25,2.692c-0.818,0-1.673,0-1.673,0l-0.543-1.128C9.907,1.283,9.406,1,8.968,1H5.109
	C4.67,1,4.169,1.283,4.044,1.564L3.5,2.692c0,0-0.886,0-1.75,0C0.355,2.692,0,3.82,0,3.82v7.897c0,0,0.875,1.129,1.75,1.129
	s9.57,0,10.5,0S14,11.718,14,11.718V3.82C14,3.82,13.706,2.692,12.25,2.692z M7,9.462c-1.047,0-1.896-0.82-1.896-1.833
	S5.953,5.795,7,5.795s1.895,0.821,1.895,1.834S8.047,9.462,7,9.462z"/>
</svg>
