<?xml version="1.0" encoding="utf-8"?>
<!DOCTYPE svg PUBLIC "-//W3C//DTD SVG 1.1//EN" "http://www.w3.org/Graphics/SVG/1.1/DTD/svg11.dtd">
<svg version="1.1" id="Layer_1" xmlns="http://www.w3.org/2000/svg" xmlns:xlink="http://www.w3.org/1999/xlink" x="0px" y="0px"
	 width="82px" height="81.982px" viewBox="0 0 82 81.982" enable-background="new 0 0 82 81.982" xml:space="preserve">
<g>
	<defs>
		<rect id="SVGID_1_" width="82" height="81.982"/>
	</defs>
	<clipPath id="SVGID_2_">
		<use xlink:href="#SVGID_1_"  overflow="visible"/>
	</clipPath>
	<path fill="#ffffff" clip-path="url(#SVGID_2_)" d="M81.994,18.509c-0.031-0.771-0.088-1.805-0.268-2.838c-0.068-0.517-0.198-1.03-0.296-1.512
		c-0.131-0.479-0.235-0.929-0.363-1.307c-0.241-0.76-0.45-1.253-0.45-1.253s-0.207-0.562-0.609-1.372
		c-0.403-0.806-0.989-1.873-1.734-2.836c-0.733-0.967-1.558-1.87-2.237-2.474c-0.326-0.318-0.629-0.546-0.829-0.719
		c-0.204-0.169-0.32-0.265-0.32-0.265l-0.009-0.007c0,0-0.119-0.086-0.326-0.238c-0.212-0.145-0.496-0.378-0.874-0.607
		c-0.73-0.49-1.765-1.05-2.834-1.517c-1.073-0.463-2.186-0.793-3.023-1.006C67.4,0.46,67.048,0.392,66.802,0.34
		c-0.246-0.054-0.389-0.067-0.389-0.067s-0.194-0.028-0.487-0.072c-0.292-0.049-0.683-0.085-1.072-0.12
		c-0.392-0.042-0.779-0.053-1.072-0.064C63.491,0.007,63.295,0,63.295,0s-0.244,0.002-0.611,0.006
		c-0.368-0.002-0.855,0.024-1.341,0.058c-0.485,0.026-0.963,0.097-1.324,0.133c-0.359,0.047-0.597,0.089-0.597,0.089
		s-0.621,0.088-1.226,0.23c-0.304,0.064-0.609,0.13-0.831,0.194c-0.225,0.059-0.375,0.098-0.375,0.098s-0.149,0.04-0.374,0.099
		c-0.221,0.067-0.516,0.158-0.811,0.249c-0.296,0.087-0.584,0.192-0.801,0.271c-0.216,0.078-0.36,0.13-0.36,0.13
		c0,0-0.352,0.124-0.865,0.34c-0.519,0.204-1.19,0.515-1.849,0.85c-1.323,0.659-2.546,1.468-2.546,1.468
		c0,0-0.114,0.073-0.313,0.201c-0.194,0.135-0.472,0.328-0.805,0.559c-0.331,0.234-0.699,0.529-1.102,0.834
		c-0.387,0.325-0.811,0.657-1.206,1.02c-0.401,0.356-0.796,0.719-1.146,1.08c-0.359,0.349-0.676,0.693-0.946,0.988
		c-0.2,0.217-0.333,0.361-0.333,0.361l-0.007,0.007c0,0-0.002-0.001-0.005-0.003c-0.147-0.078-0.294-0.155-0.433-0.228
		c-0.259-0.119-0.501-0.23-0.708-0.326c-0.206-0.098-0.383-0.166-0.507-0.213C41.75,8.449,41.68,8.422,41.68,8.422
		s-0.097-0.038-0.267-0.103c-0.168-0.069-0.412-0.155-0.709-0.247c-0.296-0.095-0.64-0.21-1.015-0.299
		c-0.374-0.101-0.773-0.198-1.176-0.271c-1.61-0.33-3.227-0.363-3.227-0.363s-0.099-0.003-0.246-0.008
		c-0.148-0.008-0.345-0.009-0.541-0.003c-0.393,0.007-0.784,0.014-0.784,0.014s-1.21,0.054-2.393,0.237
		c-1.187,0.167-2.332,0.476-2.332,0.477c0,0-0.264,0.069-0.659,0.174c-0.387,0.125-0.914,0.267-1.42,0.457
		c-1.026,0.35-2.005,0.798-2.005,0.798s-0.427,0.199-0.854,0.397c-0.418,0.215-0.837,0.429-0.837,0.429s-1.364,0.724-2.623,1.596
		c-1.269,0.861-2.428,1.853-2.428,1.853s-0.28,0.246-0.701,0.616c-0.409,0.381-0.956,0.888-1.465,1.429
		c-0.263,0.265-0.512,0.54-0.742,0.801c-0.231,0.26-0.45,0.5-0.623,0.718c-0.353,0.43-0.588,0.716-0.588,0.716L14.04,17.85
		c0,0-0.234,0.31-0.584,0.774c-0.343,0.47-0.795,1.101-1.205,1.762c-0.838,1.309-1.524,2.706-1.524,2.706s-0.164,0.345-0.408,0.863
		c-0.23,0.525-0.531,1.227-0.788,1.949c-0.259,0.72-0.487,1.452-0.632,2.009c-0.159,0.552-0.231,0.932-0.231,0.932
		S8.434,29.808,8.289,30.9c-0.153,0.112-0.308,0.228-0.459,0.348c-1.229,0.934-2.284,2.031-2.284,2.031s-0.1,0.101-0.248,0.251
		c-0.142,0.156-0.332,0.363-0.521,0.57c-0.372,0.421-0.727,0.853-0.727,0.853l-0.006,0.008c0,0-0.68,0.837-1.257,1.752
		c-0.588,0.907-1.046,1.892-1.046,1.892s-0.045,0.098-0.125,0.269c-0.083,0.169-0.188,0.418-0.307,0.719
		c-0.253,0.596-0.517,1.419-0.741,2.25c-0.201,0.836-0.366,1.681-0.43,2.321c-0.044,0.318-0.066,0.585-0.077,0.771
		C0.048,45.124,0.04,45.23,0.04,45.23s-0.025,0.299-0.027,0.599C0.006,46.129,0,46.428,0,46.428l0.021,0.827
		c0,0,0.052,1.199,0.262,2.372c0.196,1.176,0.55,2.31,0.55,2.31c0,0,0.484,1.622,1.256,3.116c0.379,0.749,0.808,1.47,1.158,1.991
		c0.345,0.524,0.6,0.855,0.6,0.855s0.775,1.067,1.699,2.004c0.457,0.473,0.942,0.914,1.313,1.235
		c0.378,0.313,0.631,0.522,0.631,0.522L7.5,61.668c0,0,0.231,0.173,0.462,0.346c0.232,0.165,0.465,0.329,0.465,0.329
		s0.275,0.184,0.688,0.459c0.413,0.266,0.965,0.604,1.518,0.921c1.105,0.637,2.209,1.201,2.209,1.2c0,0,0.54,0.274,1.077,0.55
		c0.538,0.267,1.076,0.533,1.076,0.533s0.562,0.273,1.124,0.546c0.562,0.266,1.124,0.531,1.124,0.531s1.091,0.516,2.181,1.031
		c1.076,0.522,2.153,1.044,2.153,1.044s1.059,0.537,2.117,1.074c1.053,0.539,2.071,1.119,2.071,1.119s1.022,0.575,1.993,1.207
		c0.976,0.627,1.877,1.327,1.877,1.327s0.904,0.686,1.659,1.462c0.382,0.385,0.732,0.793,0.984,1.111
		c0.246,0.32,0.398,0.545,0.398,0.545s0.057,0.072,0.152,0.226c0.1,0.152,0.247,0.386,0.422,0.71
		c0.173,0.324,0.371,0.743,0.545,1.258c0.088,0.257,0.168,0.537,0.223,0.84c0.035,0.15,0.137,0.792,0.135,0.796
		c0.233,0.191,0.35,0.287,0.35,0.287l0.35,0.287l0.349,0.287c0,0,0.117,0.097,0.351,0.288c3.34-3.772,5.009-5.658,5.009-5.658
		l5.01-5.658l4.991-5.674l4.99-5.674l3.574-4.073l1.406-1.608l4.974-5.688l4.975-5.688l3.81-4.356l0.007-0.008
		c0,0,0.312-0.373,0.624-0.746c0.319-0.368,0.61-0.761,0.61-0.761s1.304-1.645,2.386-3.474c0.553-0.906,1.04-1.858,1.392-2.58
		c0.342-0.728,0.554-1.223,0.554-1.223c0.001,0,0.325-0.768,0.607-1.559c0.29-0.787,0.521-1.602,0.521-1.602
		c-0.001,0,0.116-0.367,0.254-0.932c0.147-0.561,0.312-1.322,0.441-2.094c0.134-0.771,0.217-1.556,0.259-2.147
		c0.03-0.594,0.051-0.99,0.051-0.99C81.997,19.791,82.006,19.279,81.994,18.509 M75.202,20.431
		c-0.019,0.426-0.041,0.997-0.104,1.571c-0.061,0.574-0.146,1.151-0.233,1.582c-0.074,0.433-0.148,0.719-0.148,0.719
		s-0.136,0.631-0.324,1.256c-0.181,0.626-0.397,1.247-0.397,1.247s-0.152,0.398-0.379,0.995c-0.246,0.592-0.587,1.381-0.991,2.146
		c-0.786,1.542-1.791,2.988-1.791,2.988s-0.222,0.344-0.471,0.67c-0.244,0.331-0.487,0.662-0.487,0.662l-0.006,0.007l-3.533,4.583
		l-4.613,5.983l-4.613,5.983l-1.305,1.692l-3.303,4.297l-4.597,5.997l-4.598,5.997l-4.577,6.013c0,0-0.97,1.275-2.904,3.815
		c-0.151-0.655-0.339-1.186-0.51-1.599c-0.174-0.415-0.326-0.716-0.43-0.913c-0.102-0.2-0.16-0.294-0.16-0.294
		s-0.161-0.294-0.429-0.714c-0.272-0.417-0.659-0.953-1.077-1.455c-0.416-0.504-0.86-0.976-1.202-1.316
		c-0.341-0.344-0.576-0.561-0.576-0.561s-0.936-0.879-1.932-1.656c-0.991-0.786-2.02-1.497-2.02-1.497s-1.025-0.719-2.07-1.383
		c-1.044-0.672-2.107-1.288-2.107-1.288s-1.06-0.614-2.12-1.229l-2.115-1.197l-2.145-1.209c0,0-0.506-0.288-1.012-0.576
		c-0.499-0.291-0.998-0.582-0.998-0.582s-1.02-0.597-1.978-1.225c-0.48-0.313-0.943-0.635-1.28-0.879
		c-0.329-0.247-0.548-0.412-0.548-0.412s-0.178-0.142-0.356-0.283c-0.17-0.144-0.34-0.287-0.34-0.287l-0.007-0.006
		c0,0-0.187-0.167-0.467-0.417c-0.274-0.258-0.632-0.608-0.966-0.98c-0.675-0.739-1.231-1.569-1.231-1.569s-0.185-0.258-0.43-0.665
		c-0.251-0.402-0.553-0.96-0.816-1.533c-0.538-1.146-0.851-2.363-0.851-2.363s-0.226-0.854-0.346-1.722
		c-0.127-0.868-0.14-1.74-0.14-1.74l0.002-0.6c0,0,0.011-0.216,0.023-0.433c0.006-0.216,0.033-0.431,0.033-0.431
		s0.107-1.229,0.449-2.401c0.181-0.582,0.378-1.157,0.572-1.569c0.089-0.209,0.167-0.382,0.231-0.499
		c0.06-0.119,0.093-0.187,0.093-0.187c0,0,0.333-0.685,0.761-1.315c0.42-0.635,0.913-1.223,0.913-1.223l0.005-0.006
		c0,0,0.138-0.155,0.317-0.357c0.002,0.007,0.004,0.013,0.005,0.02c0.26-0.306,0.509-0.574,0.75-0.823
		c0.065-0.063,0.105-0.102,0.105-0.102s0.822-0.816,1.74-1.481c0.906-0.686,1.902-1.19,1.902-1.19s0.987-0.524,2.038-0.863
		c1.047-0.349,2.132-0.517,2.132-0.517s0.449-0.074,0.901-0.114c0.453-0.043,0.907-0.05,0.907-0.05l0.104-0.004
		c0,0,0.618-0.006,1.235,0.045c0.618,0.044,1.229,0.158,1.229,0.158s1.09,0.184,2.14,0.55c1.058,0.346,2.052,0.868,2.052,0.868
		c0.001,0,0.002,0.001,0.004,0.001v0l2.104,0.971l1.392-1.642c0.001-0.001,0.002-0.002,0.003-0.003c0,0,0.617-0.758,1.293-1.447
		c0.668-0.701,1.399-1.315,1.399-1.315s0.729-0.619,1.505-1.154c0.385-0.273,0.783-0.521,1.086-0.696
		c0.152-0.088,0.278-0.161,0.366-0.212c0.091-0.047,0.142-0.073,0.142-0.073s0.817-0.454,1.678-0.768
		c0.857-0.331,1.74-0.523,1.74-0.523s0.543-0.12,1.091-0.191c0.549-0.066,1.097-0.083,1.097-0.083s0.098,0,0.244,0.001
		c0.146,0,0.343-0.002,0.536,0.013c0.196,0.009,0.391,0.021,0.535,0.042c0.146,0.015,0.242,0.025,0.242,0.025
		s0.829,0.102,1.628,0.346c0.198,0.067,0.396,0.133,0.581,0.195c0.183,0.073,0.353,0.142,0.498,0.2
		c0.286,0.132,0.477,0.221,0.477,0.221s0.094,0.05,0.234,0.125c0.141,0.073,0.329,0.174,0.509,0.29
		c0.186,0.107,0.364,0.226,0.495,0.319c0.134,0.09,0.223,0.151,0.223,0.151l0.007,0.004c0,0,0.093,0.071,0.232,0.177
		c0.144,0.103,0.324,0.251,0.501,0.404c0.355,0.303,0.677,0.642,0.677,0.642c-0.001,0,0.626,0.64,1.105,1.397
		c0.248,0.373,0.455,0.772,0.604,1.076c0.144,0.307,0.228,0.517,0.228,0.517s0.339,0.816,0.523,1.698
		c0.091,0.44,0.155,0.888,0.189,1.229c0.026,0.342,0.043,0.57,0.043,0.57s0.005,0.243,0.013,0.608
		c-0.006,0.184-0.011,0.398-0.018,0.627c-0.019,0.231-0.039,0.477-0.059,0.723c-0.057,0.492-0.141,0.985-0.215,1.354
		c-0.085,0.369-0.141,0.614-0.141,0.614s-0.079,0.285-0.159,0.57c-0.078,0.286-0.179,0.568-0.179,0.568s-0.214,0.661-0.493,1.308
		c-0.269,0.648-0.595,1.28-0.595,1.279c-0.001,0-0.475,0.944-1.063,1.839c-0.573,0.901-1.235,1.755-1.235,1.755l-0.005,0.008
		l-2.239,2.927l-2.341,3.059l-2.332,3.066l-2.328,3.069c0,0-0.354,0.467-1.046,1.379c-0.057-0.392-0.132-0.765-0.237-1.104
		c-0.24-0.8-0.575-1.424-0.868-1.89c-0.302-0.463-0.558-0.783-0.734-0.988c-0.177-0.204-0.266-0.307-0.266-0.307
		s-0.069-0.072-0.19-0.199c-0.12-0.13-0.295-0.308-0.513-0.511c-0.432-0.408-1.029-0.92-1.646-1.384
		c-1.231-0.936-2.507-1.754-2.507-1.754s-1.27-0.829-2.552-1.618c-1.282-0.782-2.565-1.564-2.565-1.564l-5.122-3.096l-1.264-0.771
		l-0.008-0.004c0,0-0.206-0.137-0.516-0.341c-0.318-0.192-0.7-0.503-1.095-0.794c-0.759-0.622-1.43-1.322-1.43-1.322
		s-0.223-0.251-0.558-0.626c-0.153-0.198-0.333-0.429-0.525-0.676c-0.173-0.26-0.367-0.532-0.543-0.813
		c-0.344-0.57-0.648-1.16-0.844-1.617c-0.097-0.23-0.176-0.421-0.233-0.554c-0.053-0.135-0.076-0.215-0.076-0.215
		s-0.27-0.721-0.489-1.673c-0.791,0.725-1.712,1.648-2.431,2.599c0.05,0.125,0.079,0.198,0.079,0.198s0.035,0.096,0.108,0.258
		c0.077,0.162,0.186,0.392,0.318,0.668c0.269,0.55,0.678,1.257,1.134,1.932c0.232,0.335,0.482,0.656,0.711,0.96
		c0.248,0.289,0.479,0.559,0.678,0.789c0.424,0.434,0.708,0.722,0.708,0.722s0.846,0.805,1.777,1.49
		c0.479,0.322,0.946,0.66,1.323,0.866c0.37,0.219,0.617,0.364,0.617,0.364l0.008,0.005l1.304,0.715l5.265,2.86
		c0,0,1.308,0.718,2.616,1.435c1.303,0.722,2.576,1.472,2.576,1.472s1.281,0.743,2.473,1.566c0.6,0.408,1.161,0.848,1.561,1.192
		c0.201,0.171,0.361,0.318,0.469,0.426c0.11,0.104,0.173,0.164,0.173,0.164s0.079,0.083,0.236,0.249
		c0.158,0.165,0.381,0.421,0.643,0.781c0.254,0.364,0.539,0.835,0.761,1.457c0.227,0.619,0.361,1.403,0.393,2.341
		c0,0,0,0-0.001,0.001h0c0,0.001,0,0.002,0,0.002h0.001c0.155,0.128,0.232,0.191,0.232,0.191l0.234,0.193l0.235,0.193
		c0,0,0.078,0.063,0.234,0.192c1.721-1.905,2.582-2.857,2.582-2.857l2.581-2.857l2.577-2.86l2.569-2.867l2.457-2.742l0.007-0.008
		c0,0,0.794-0.889,1.508-1.857c0.728-0.958,1.349-2.006,1.349-2.006s0.426-0.698,0.793-1.436c0.378-0.732,0.688-1.504,0.688-1.504
		s0.142-0.327,0.261-0.665c0.118-0.338,0.237-0.676,0.237-0.676s0.09-0.295,0.225-0.737c0.123-0.447,0.271-1.05,0.383-1.666
		c0.048-0.31,0.095-0.62,0.14-0.91c0.028-0.294,0.055-0.569,0.078-0.804c0.022-0.475,0.038-0.792,0.038-0.792
		s-0.002-0.302-0.004-0.754c-0.014-0.454-0.057-1.06-0.139-1.666c-0.092-0.605-0.218-1.208-0.339-1.655
		c-0.125-0.446-0.22-0.741-0.22-0.741s-0.098-0.304-0.271-0.751c-0.178-0.444-0.435-1.034-0.751-1.594
		c-0.612-1.136-1.45-2.125-1.45-2.125s-0.428-0.522-0.909-0.993c-0.236-0.238-0.481-0.469-0.675-0.629
		c-0.19-0.166-0.317-0.275-0.317-0.275l-0.008-0.008c0,0-0.12-0.093-0.301-0.233c-0.179-0.142-0.422-0.326-0.678-0.496
		c-0.248-0.178-0.508-0.34-0.705-0.458c-0.198-0.119-0.329-0.199-0.329-0.199s-0.27-0.145-0.672-0.363
		C46.743,24,46.5,23.885,46.241,23.763c-0.265-0.111-0.549-0.228-0.836-0.337c-1.152-0.431-2.366-0.65-2.366-0.65
		s-0.142-0.025-0.354-0.061c-0.212-0.04-0.495-0.077-0.78-0.107c-0.284-0.038-0.569-0.053-0.784-0.066
		c-0.214-0.013-0.356-0.021-0.356-0.021s-0.8-0.026-1.596,0.025c-0.794,0.053-1.576,0.18-1.576,0.18c0,0-1.271,0.201-2.483,0.59
		c-1.219,0.369-2.354,0.914-2.354,0.914s-0.071,0.032-0.197,0.089c-0.123,0.062-0.298,0.149-0.507,0.254
		c-0.419,0.211-0.969,0.51-1.496,0.839c-1.062,0.649-2.03,1.412-2.03,1.412c0,0-0.978,0.752-1.857,1.596
		c-0.089,0.083-0.177,0.166-0.177,0.166s-0.441-0.165-0.882-0.329c-1.473-0.517-3.026-0.763-3.026-0.763
		c0,0-0.869-0.155-1.751-0.214c-0.882-0.067-1.769-0.051-1.769-0.051l-0.149,0.006c0,0-0.652,0.014-1.302,0.08
		c-0.65,0.062-1.293,0.171-1.293,0.171s-1.565,0.245-3.045,0.786c-0.259,0.089-0.514,0.187-0.759,0.287
		c0.137-0.398,0.311-0.857,0.499-1.311c0.25-0.607,0.539-1.199,0.758-1.641c0.232-0.436,0.387-0.726,0.387-0.726
		s0.652-1.176,1.431-2.272c0.379-0.554,0.799-1.081,1.115-1.473c0.323-0.387,0.539-0.645,0.539-0.645l0.006-0.007
		c0,0,0.215-0.237,0.538-0.592c0.157-0.182,0.356-0.377,0.566-0.591c0.208-0.215,0.434-0.441,0.67-0.656
		c0.458-0.443,0.947-0.851,1.31-1.16c0.373-0.296,0.621-0.493,0.621-0.493s1.027-0.792,2.127-1.464
		c1.095-0.679,2.253-1.224,2.253-1.224s0.354-0.16,0.709-0.32c0.359-0.146,0.719-0.292,0.719-0.292c-0.001,0,0.822-0.329,1.665-0.57
		c0.418-0.136,0.846-0.225,1.161-0.313c0.319-0.067,0.532-0.111,0.532-0.111s0.926-0.202,1.855-0.285
		c0.464-0.042,0.929-0.08,1.275-0.081c0.346-0.007,0.577-0.012,0.577-0.012s0.297,0.01,0.594,0.021
		c0.148,0.002,0.296,0.01,0.406,0.022c0.111,0.009,0.184,0.015,0.184,0.015s1.21,0.087,2.354,0.383
		c1.151,0.276,2.205,0.76,2.205,0.76s0.777,0.333,1.478,0.786c0.35,0.224,0.696,0.456,0.938,0.651
		c0.245,0.193,0.408,0.321,0.408,0.321c0.001,0.001,0.002,0.002,0.003,0.003l1.979,1.65l2.006-2.087
		c0.001-0.001,0.002-0.002,0.002-0.003c0,0,0.237-0.247,0.475-0.493c0.232-0.251,0.481-0.483,0.481-0.483
		c0.001,0,1.232-1.219,2.599-2.244c1.351-1.048,2.833-1.863,2.833-1.863s0.987-0.574,2.027-1.016
		c0.518-0.223,1.038-0.434,1.434-0.572c0.394-0.148,0.66-0.228,0.659-0.229c0,0,0.11-0.034,0.274-0.085
		c0.164-0.052,0.382-0.123,0.602-0.176c0.222-0.058,0.441-0.116,0.607-0.159c0.165-0.036,0.276-0.06,0.276-0.06
		s0.109-0.024,0.276-0.06c0.165-0.041,0.388-0.078,0.608-0.115c0.444-0.083,0.887-0.132,0.887-0.132s0.17-0.027,0.425-0.054
		c0.256-0.015,0.596-0.062,0.936-0.068c0.339-0.014,0.677-0.027,0.928-0.016c0.252,0.003,0.42,0.004,0.42,0.004
		s0.131,0.009,0.328,0.023c0.198,0.013,0.461,0.024,0.72,0.062c0.26,0.03,0.52,0.058,0.708,0.098
		c0.192,0.033,0.319,0.055,0.319,0.055s0.095,0.01,0.253,0.048c0.158,0.036,0.385,0.086,0.656,0.146
		c0.535,0.144,1.24,0.357,1.903,0.651c0.66,0.3,1.295,0.645,1.738,0.951c0.232,0.138,0.4,0.29,0.531,0.377
		c0.127,0.092,0.199,0.146,0.199,0.146l0.007,0.004c0,0,0.071,0.06,0.196,0.164c0.123,0.108,0.317,0.242,0.514,0.439
		c0.424,0.364,0.922,0.916,1.377,1.5c0.457,0.584,0.837,1.229,1.1,1.728s0.401,0.854,0.401,0.854s0.034,0.078,0.093,0.213
		c0.059,0.137,0.122,0.341,0.215,0.579c0.096,0.238,0.17,0.532,0.273,0.837c0.073,0.318,0.181,0.647,0.238,0.995
		c0.154,0.683,0.22,1.396,0.267,1.93c0.025,0.54,0.041,0.9,0.041,0.9S75.205,20.006,75.202,20.431"/>
</g>
</svg>
