<?xml version="1.0" encoding="utf-8"?>
<!DOCTYPE svg PUBLIC "-//W3C//DTD SVG 1.1//EN" "http://www.w3.org/Graphics/SVG/1.1/DTD/svg11.dtd">
<svg version="1.1" id="Layer_1" xmlns="http://www.w3.org/2000/svg" xmlns:xlink="http://www.w3.org/1999/xlink" x="0px" y="0px"
	 width="14px" height="14px" viewBox="0 0 14 14" enable-background="new 0 0 14 14" xml:space="preserve">
<path fill-rule="evenodd" clip-rule="evenodd" fill="#90699c" d="M14,14L14,14c0,0-1.02-1.751-0.875-2.042
	C13.271,11.666,14,11.155,14,9.624c0-1.677-1.604-3.5-4.375-3.5c-2.771,0-4.375,1.676-4.375,3.5s1.459,3.5,3.792,3.5
	c0.766,0,1.751,0,1.751,0L14,14z"/>
<path fill-rule="evenodd" clip-rule="evenodd" fill="#90699c" d="M0,11.374c0,0,0.966-2.133,0.875-3.208C0.824,7.566,0,6.899,0,4.958
	C0,2.724,1.799,0,6.125,0c5.402,0,6.125,4.958,6.125,4.958S8.507,3.573,5.834,5.542C3.16,7.51,3.5,10.791,3.5,10.791L0,11.374z"/>
</svg>
